<?xml version="1.0" encoding="utf-8"?>

<!DOCTYPE svg PUBLIC "-//W3C//DTD SVG 1.1//EN" "http://www.w3.org/Graphics/SVG/1.1/DTD/svg11.dtd">
<svg fill="#4d4f5f" version="1.1" id="Layer_1" xmlns="http://www.w3.org/2000/svg" xmlns:xlink="http://www.w3.org/1999/xlink" 
	 width="800px" height="800px" viewBox="0 0 72 72" enable-background="new 0 0 72 72" xml:space="preserve">
<g>
	<g>
		<path d="M36.001,63.75C24.233,63.75,2.5,54.883,2.5,42.25c0-12.634,21.733-21.5,33.501-21.5c11.766,0,33.5,8.866,33.5,21.5
			C69.501,54.883,47.767,63.75,36.001,63.75z M36.001,24.75C24.886,24.75,6.5,32.929,6.5,42.25c0,9.32,18.387,17.5,29.501,17.5
			c11.113,0,29.5-8.18,29.5-17.5C65.501,32.929,47.114,24.75,36.001,24.75z"/>
	</g>
	<g>
		<path d="M36.001,52.917c-5.791,0-10.501-4.709-10.501-10.5c0-5.79,4.711-10.5,10.501-10.5c5.789,0,10.5,4.71,10.5,10.5
			C46.501,48.208,41.79,52.917,36.001,52.917z M36.001,33.917c-4.688,0-8.501,3.814-8.501,8.5c0,4.688,3.813,8.5,8.501,8.5
			c4.686,0,8.5-3.813,8.5-8.5C44.501,37.731,40.687,33.917,36.001,33.917z"/>
	</g>
	<g>
		<path d="M32.073,39.809c-0.242,0-0.484-0.088-0.677-0.264c-0.406-0.375-0.433-1.008-0.059-1.414
			c0.2-0.217,0.415-0.422,0.644-0.609c0.428-0.352,1.058-0.291,1.408,0.137c0.352,0.426,0.29,1.057-0.136,1.408
			c-0.158,0.129-0.307,0.27-0.444,0.418C32.612,39.7,32.342,39.809,32.073,39.809z"/>
	</g>
	<g>
		<path d="M36.001,48.75c-3.494,0-6.335-2.842-6.335-6.334c0-0.553,0.448-1,1-1c0.553,0,1,0.447,1,1
			c0,2.391,1.945,4.334,4.335,4.334c0.553,0,1,0.447,1,1S36.554,48.75,36.001,48.75z"/>
	</g>
</g>
</svg>
